<svg xmlns="http://www.w3.org/2000/svg" version="1.1" xmlns:xlink="http://www.w3.org/1999/xlink" xmlns:svgjs="http://svgjs.dev/svgjs" width="2000" height="474" viewBox="0 0 2000 474"><g transform="matrix(1,0,0,1,-1.2121212121212466,0.1931730671393268)"><svg viewBox="0 0 396 94" data-background-color="#ffffff" preserveAspectRatio="xMidYMid meet" height="474" width="2000" xmlns="http://www.w3.org/2000/svg" xmlns:xlink="http://www.w3.org/1999/xlink"><g id="tight-bounds" transform="matrix(1,0,0,1,0.2400000000000091,-0.038308582934803326)"><svg viewBox="0 0 395.52 94.0766171658696" height="94.0766171658696" width="395.52"><g><svg viewBox="0 0 395.52 94.0766171658696" height="94.0766171658696" width="395.52"><g><svg viewBox="0 0 395.52 94.0766171658696" height="94.0766171658696" width="395.52"><g id="textblocktransform"><svg viewBox="0 0 395.52 94.0766171658696" height="94.0766171658696" width="395.52" id="textblock"><g><svg viewBox="0 0 395.52 94.0766171658696" height="94.0766171658696" width="395.52"><g transform="matrix(1,0,0,1,0,0)"><svg width="395.52" viewBox="3 -39.65 200.52 47.25" height="94.0766171658696" data-palette-color="#000000"><path d="M3-34.55L9.35-34.55 9.35-5.25 20.5-5.25 19.8 0 3 0 3-34.55ZM33.1-27.15Q38.1-27.15 40.87-23.65 43.65-20.15 43.65-13.25L43.65-13.25Q43.65-6.65 40.85-2.95 38.05 0.75 33.1 0.75L33.1 0.75Q28.15 0.75 25.35-2.88 22.55-6.5 22.55-13.25L22.55-13.25Q22.55-19.95 25.35-23.55 28.15-27.15 33.1-27.15L33.1-27.15ZM33.1-22.5Q30.95-22.5 29.95-20.38 28.95-18.25 28.95-13.25L28.95-13.25Q28.95-8.2 29.95-6.08 30.95-3.95 33.1-3.95L33.1-3.95Q35.25-3.95 36.25-6.08 37.25-8.2 37.25-13.25L37.25-13.25Q37.25-18.3 36.25-20.4 35.25-22.5 33.1-22.5L33.1-22.5ZM59.34-5L61.5-1.2Q59.05 0.75 55.74 0.75L55.74 0.75Q52.3 0.75 50.49-1.23 48.7-3.2 48.7-6.6L48.7-6.6 48.7-22 45.59-22 45.59-26.45 48.7-26.45 48.7-32.3 54.84-33.05 54.84-26.45 59.84-26.45 59.24-22 54.84-22 54.84-6.6Q54.84-4.2 56.89-4.2L56.89-4.2Q57.55-4.2 58.05-4.38 58.55-4.55 59.34-5L59.34-5ZM73.74-33.05Q72.34-33.05 71.67-32.3 70.99-31.55 70.99-30L70.99-30 70.99-26.45 76.04-26.45 75.34-22 70.99-22 70.99 0 64.84 0 64.84-22 61.54-22 61.54-26.45 64.84-26.45 64.84-29.8Q64.84-33.4 66.94-35.55 69.04-37.7 72.94-37.7L72.94-37.7Q75.99-37.7 78.84-36.2L78.84-36.2 77.14-32.2Q75.39-33.05 73.74-33.05L73.74-33.05ZM78.84-26.45L84.99-26.45 84.99 0 78.84 0 78.84-26.45ZM81.89-39.65Q83.54-39.65 84.57-38.6 85.59-37.55 85.59-35.9L85.59-35.9Q85.59-34.3 84.57-33.25 83.54-32.2 81.89-32.2L81.89-32.2Q80.24-32.2 79.22-33.25 78.19-34.3 78.19-35.9L78.19-35.9Q78.19-37.55 79.22-38.6 80.24-39.65 81.89-39.65L81.89-39.65ZM107.89-34.55L107.89-5Q107.89 0.4 105.53 3.18 103.19 5.95 98.94 7.6L98.94 7.6 97.23 3.1Q99.09 2.2 99.98 1.18 100.89 0.15 101.19-1.3 101.48-2.75 101.48-5.25L101.48-5.25 101.48-34.55 107.89-34.55ZM132.43-13.85Q132.43-13.4 132.28-11.3L132.28-11.3 118.63-11.3Q118.83-7.2 120.06-5.58 121.28-3.95 123.53-3.95L123.53-3.95Q125.08-3.95 126.33-4.48 127.58-5 129.03-6.15L129.03-6.15 131.58-2.65Q128.08 0.75 123.18 0.75L123.18 0.75Q117.98 0.75 115.21-2.85 112.43-6.45 112.43-13L112.43-13Q112.43-19.55 115.08-23.35 117.73-27.15 122.58-27.15L122.58-27.15Q127.23-27.15 129.83-23.78 132.43-20.4 132.43-13.85L132.43-13.85ZM126.43-15.3L126.43-15.65Q126.43-19.4 125.53-21.13 124.63-22.85 122.63-22.85L122.63-22.85Q120.78-22.85 119.81-21.18 118.83-19.5 118.63-15.3L118.63-15.3 126.43-15.3ZM142.33 0.75Q139.63 0.75 138.06-0.93 136.48-2.6 136.48-5.4L136.48-5.4 136.48-37.05 142.63-37.7 142.63-5.65Q142.63-5 142.93-4.6 143.23-4.2 143.83-4.2L143.83-4.2Q144.18-4.2 144.5-4.3 144.83-4.4 144.93-4.4L144.93-4.4 146.13-0.2Q144.43 0.75 142.33 0.75L142.33 0.75ZM154.78 0.75Q152.08 0.75 150.5-0.93 148.93-2.6 148.93-5.4L148.93-5.4 148.93-37.05 155.08-37.7 155.08-5.65Q155.08-5 155.38-4.6 155.68-4.2 156.28-4.2L156.28-4.2Q156.63-4.2 156.95-4.3 157.28-4.4 157.38-4.4L157.38-4.4 158.58-0.2Q156.88 0.75 154.78 0.75L154.78 0.75ZM178.52-6.4Q178.52-5.1 178.87-4.48 179.22-3.85 180.02-3.45L180.02-3.45 178.77 0.65Q176.72 0.4 175.5-0.45 174.27-1.3 173.67-3.05L173.67-3.05Q171.37 0.75 167.22 0.75L167.22 0.75Q163.92 0.75 161.97-1.48 160.02-3.7 160.02-7.4L160.02-7.4Q160.02-11.7 162.7-13.95 165.37-16.2 170.47-16.2L170.47-16.2 172.52-16.2 172.52-18.05Q172.52-20.55 171.65-21.58 170.77-22.6 168.82-22.6L168.82-22.6Q166.47-22.6 162.97-21.3L162.97-21.3 161.57-25.3Q163.57-26.2 165.72-26.68 167.87-27.15 169.82-27.15L169.82-27.15Q178.52-27.15 178.52-18.35L178.52-18.35 178.52-6.4ZM168.87-3.7Q171.27-3.7 172.52-7L172.52-7 172.52-12.55 171.07-12.55Q168.52-12.55 167.35-11.4 166.17-10.25 166.17-7.85L166.17-7.85Q166.17-5.8 166.87-4.75 167.57-3.7 168.87-3.7L168.87-3.7ZM189.92 0.75Q187.22 0.75 185.65-0.93 184.07-2.6 184.07-5.4L184.07-5.4 184.07-37.05 190.22-37.7 190.22-5.65Q190.22-5 190.52-4.6 190.82-4.2 191.42-4.2L191.42-4.2Q191.77-4.2 192.1-4.3 192.42-4.4 192.52-4.4L192.52-4.4 193.72-0.2Q192.02 0.75 189.92 0.75L189.92 0.75ZM196.77-26.45L202.92-26.45 202.92 0 196.77 0 196.77-26.45ZM199.82-39.65Q201.47-39.65 202.49-38.6 203.52-37.55 203.52-35.9L203.52-35.9Q203.52-34.3 202.49-33.25 201.47-32.2 199.82-32.2L199.82-32.2Q198.17-32.2 197.14-33.25 196.12-34.3 196.12-35.9L196.12-35.9Q196.12-37.55 197.14-38.6 198.17-39.65 199.82-39.65L199.82-39.65Z" opacity="1" transform="matrix(1,0,0,1,0,0)" fill="#000000" class="wordmark-text-0" data-fill-palette-color="primary" id="text-0"></path></svg></g></svg></g></svg></g></svg></g><g></g></svg></g><defs></defs></svg><rect width="395.52" height="94.0766171658696" fill="none" stroke="none" visibility="hidden"></rect></g></svg></g></svg>